#Comment line ignore any data following # character 
#Hierarchical Translation and Rotation (.htr) file 
[Header]	
#Header keywords are followed by a single value 
FileType HTR		#Single word string
DataType HTRS		#Translation followed by rotation and scale data
FileVersion 1		#integer
NumSegments 14		#integer
NumFrames 10		#integer
DataFrameRate 30		#integer, data frame rate in this file
EulerRotationOrder ZYX
CalibrationUnits mm
RotationUnits Degrees
GlobalAxisofGravity Y
BoneLengthAxis Y
ScaleFactor 1.00
[SegmentNames&Hierarchy]
#CHILD	PARENT
MASTER GLOBAL
weapon MASTER
barrel_root weapon
middle_left_energyLow_part1 weapon
middle_left_energyLow_part2 weapon
middle_left_root weapon
middle_right_energyLow_part1 weapon
middle_top weapon
barrel1_top_root barrel_root
barrel2_top_root barrel_root
barrel3_top_root barrel_root
barrel1_top_back barrel1_top_root
barrel2_top_back barrel2_top_root
barrel3_top_back barrel3_top_root
[BasePosition]
#SegmentName Tx, Ty, Tz, Rx, Ry, Rz, BoneLength
MASTER 0.000000 0.000000 0.000000 -90.000000 0.000000 0.000000 10.000000 
weapon 0.000000 0.000000 0.000000 0.000000 0.000000 0.000000 10.000000 
barrel_root 0.000000 0.000000 0.000000 0.000000 0.000000 0.000000 10.000000 
middle_left_energyLow_part1 0.000000 0.000000 0.000000 0.000000 0.000000 0.000000 10.000000 
middle_left_energyLow_part2 0.000000 0.000000 0.000000 0.000000 0.000000 0.000000 10.000000 
middle_left_root 0.000000 0.000000 0.000000 0.000000 0.000000 0.000000 10.000000 
middle_right_energyLow_part1 0.000000 0.000000 0.000000 0.000000 0.000000 0.000000 10.000000 
middle_top 0.000000 0.000000 0.000000 0.000000 0.000000 0.000000 10.000000 
barrel1_top_root 0.000000 0.000000 0.000000 0.000000 0.000000 0.000000 10.000000 
barrel2_top_root 0.000000 0.000000 0.000000 0.000000 0.000000 0.000000 10.000000 
barrel3_top_root 0.000000 0.000000 0.000000 0.000000 0.000000 0.000000 10.000000 
barrel1_top_back 0.000000 0.000000 0.000000 0.000000 0.000000 0.000000 10.000000 
barrel2_top_back 0.000000 0.000000 0.000000 0.000000 0.000000 0.000000 10.000000 
barrel3_top_back 0.000000 0.000000 0.000000 0.000000 0.000000 0.000000 10.000000 
#Beginning of Data. Separated by tabs
#Fr	Tx	Ty	Tz	Rx	Ry	Rz	SF
[MASTER]
50 0.000000 0.000000 0.000000 0.000000 -0.000000 0.000000 0.000000
51 0.000000 0.000000 0.000000 0.000000 -0.000000 0.000000 0.000000
52 0.000000 0.000000 0.000000 0.000000 -0.000000 0.000000 0.000000
53 0.000000 0.000000 0.000000 0.000000 -0.000000 0.000000 0.000000
54 0.000000 0.000000 0.000000 0.000000 -0.000000 0.000000 0.000000
55 0.000000 0.000000 0.000000 0.000000 -0.000000 0.000000 0.000000
56 0.000000 0.000000 0.000000 0.000000 -0.000000 0.000000 0.000000
57 0.000000 0.000000 0.000000 0.000000 -0.000000 0.000000 0.000000
58 0.000000 0.000000 0.000000 0.000000 -0.000000 0.000000 0.000000
59 0.000000 0.000000 0.000000 0.000000 -0.000000 0.000000 0.000000
[weapon]
50 -0.000010 -104.980431 30.104675 0.000000 0.000000 -0.000020 109.211639
51 0.000000 -104.980431 30.104521 0.000000 0.000000 -0.000020 109.211601
52 0.000019 -104.980431 30.104521 0.000000 0.000000 -0.000020 109.211601
53 0.000000 -104.980469 30.104521 0.000000 0.000000 -0.000020 109.211632
54 0.000010 -104.980545 30.104675 0.000000 0.000000 -0.000020 109.211746
55 0.000000 -104.980621 30.104521 0.000000 0.000000 -0.000020 109.211777
56 0.000019 -104.980507 30.104521 0.000000 0.000000 -0.000020 109.211670
57 0.000010 -104.980545 30.104675 0.000000 0.000000 -0.000020 109.211746
58 -0.000029 -104.980545 30.104675 0.000000 0.000000 -0.000020 109.211746
59 -0.000029 -104.980385 30.104675 0.000000 0.000000 -0.000020 109.211601
[barrel_root]
50 -0.000004 292.772400 -55.258675 0.001189 -71.668243 0.001189 297.941620
51 0.000005 294.365387 -55.258671 0.001187 -73.046852 0.001187 299.507080
52 0.000014 295.958313 -55.258671 0.001185 -74.152443 0.001185 301.072815
53 0.000022 297.551239 -55.258663 0.001184 -74.960449 0.001184 302.638824
54 0.000031 299.144196 -55.258659 0.001183 -75.466133 0.001183 304.205139
55 0.000040 300.737152 -55.258652 0.001183 -75.635056 0.001183 305.771729
56 0.000049 302.330078 -55.258648 0.001185 -74.288879 0.001185 307.338562
57 0.000058 303.923035 -55.258640 0.001191 -70.380173 0.001191 308.905701
58 0.000067 305.515961 -55.258636 0.001204 -64.136642 0.001204 310.473053
59 0.000061 306.988770 -55.258621 0.001228 -55.787289 0.001228 311.922455
[middle_left_energyLow_part1]
50 -114.748550 -30.653152 39.072876 0.001499 -13.018644 0.001499 125.034142
51 -113.416428 -30.653152 42.141277 0.001491 -13.790822 0.001491 124.815018
52 -112.084305 -30.653152 45.209652 0.001484 -14.562990 0.001484 124.685287
53 -110.886749 -30.653152 48.069534 0.001476 -15.361093 0.001476 124.684273
54 -109.689201 -30.653152 50.929424 0.001468 -16.174932 0.001468 124.760338
55 -108.651932 -30.653076 53.534019 0.001460 -16.999607 0.001460 124.942963
56 -107.614670 -30.653000 56.138607 0.001452 -17.840170 0.001452 125.188118
57 -106.763199 -30.653191 58.440777 0.001444 -18.699785 0.001444 125.512245
58 -105.911728 -30.653379 60.742954 0.001437 -19.559402 0.001437 125.883408
59 -105.215820 -30.653152 62.788696 0.001429 -20.438246 0.001429 126.302826
[middle_left_energyLow_part2]
50 -143.671844 -30.629995 1.178131 0.003010 44.105103 0.003010 146.905350
51 -142.544662 -30.729370 4.570020 0.003134 46.009937 0.003134 145.890915
52 -141.417496 -30.828743 7.961883 0.003269 47.914719 0.003269 144.957611
53 -140.290298 -30.928114 11.353759 0.003413 49.772373 0.003413 144.106995
54 -139.239319 -31.020840 14.516410 0.003567 51.583694 0.003567 143.389709
55 -138.188354 -31.113562 17.679049 0.003733 53.348042 0.003733 142.746704
56 -137.137375 -31.206284 20.841675 0.003909 55.053631 0.003909 142.179001
57 -136.172470 -31.291426 23.745193 0.004097 56.705097 0.004097 141.724838
58 -135.207581 -31.376570 26.648720 0.004296 58.290276 0.004296 141.335526
59 -134.327423 -31.454277 29.297331 0.004505 59.802124 0.004505 141.037445
[middle_left_root]
50 -134.421295 -30.652960 -8.211516 0.004776 -61.549904 179.995224 138.116318
51 -136.773529 -30.653019 -5.757971 0.004845 -61.964809 179.995163 140.284561
52 -139.125748 -30.653076 -3.304443 0.004915 -62.369019 179.995087 142.500900
53 -141.252640 -30.653000 -1.109238 0.004982 -62.750984 179.995026 144.544601
54 -143.379532 -30.652924 1.085976 0.005047 -63.104698 179.994949 146.623566
55 -145.309982 -30.653000 3.057410 0.005109 -63.441578 179.994904 148.539383
56 -147.094971 -30.652847 4.863129 0.005167 -63.744175 179.994827 150.333542
57 -148.723404 -30.653000 6.491394 0.005222 -64.023926 179.994781 151.988144
58 -150.184387 -30.653000 7.929997 0.005271 -64.269058 179.994736 153.485641
59 -151.467010 -30.652924 9.166870 0.005315 -64.485283 179.994690 154.809204
[middle_right_energyLow_part1]
50 105.343155 -29.615286 39.072876 0.001886 -13.017005 179.998123 116.193527
51 104.010986 -29.615248 42.141197 0.001902 -13.783885 179.998093 116.065620
52 102.678825 -29.615210 45.209499 0.001918 -14.566337 179.998077 116.034050
53 101.481300 -29.615210 48.069454 0.001936 -15.359447 179.998062 116.130051
54 100.283768 -29.615210 50.929424 0.001954 -16.173292 179.998047 116.308640
55 99.246498 -29.615171 53.534100 0.001973 -16.997961 179.998032 116.588264
56 98.209221 -29.615133 56.138760 0.001993 -17.838526 179.998016 116.934464
57 97.357826 -29.615269 58.440857 0.002014 -18.695099 179.997986 117.349663
58 96.506432 -29.615402 60.742954 0.002035 -19.557753 179.997971 117.814552
59 95.810417 -29.615250 62.788696 0.002058 -20.449575 179.997940 118.317871
[middle_top]
50 -3.220486 -32.075687 59.132420 2.890248 0.001617 0.001701 67.348824
51 -3.220482 -35.117352 59.132381 3.033717 0.001615 0.001703 68.849388
52 -3.220520 -37.892342 59.132381 3.172249 0.001613 0.001705 70.305336
53 -3.220558 -40.667343 59.132381 3.310786 0.001611 0.001707 71.839012
54 -3.220515 -43.119823 59.132462 3.449323 0.001609 0.001709 73.255295
55 -3.220472 -45.572289 59.132534 3.585396 0.001607 0.001711 74.725243
56 -3.220453 -47.747612 59.132381 3.721467 0.001605 0.001713 76.071312
57 -3.220472 -49.719887 59.132381 3.855078 0.001603 0.001715 77.324493
58 -3.220463 -51.474464 59.132381 3.988687 0.001601 0.001716 78.464203
59 -3.220482 -52.997665 59.132381 4.114884 0.001599 0.001718 79.471771
[barrel1_top_root]
50 0.000081 96.240509 0.000132 0.000000 -0.000000 0.000000 96.240509
51 0.000081 96.240509 0.000132 0.000000 -0.000000 0.000000 96.240509
52 0.000081 96.240509 0.000132 0.000000 -0.000000 0.000000 96.240509
53 0.000081 96.240509 0.000132 0.000000 -0.000000 0.000000 96.240509
54 0.000081 96.240509 0.000132 0.000000 -0.000000 0.000000 96.240509
55 0.000081 96.240509 0.000132 0.000000 -0.000000 0.000000 96.240509
56 0.000081 96.240509 0.000132 0.000000 -0.000000 0.000000 96.240509
57 0.000081 96.240509 0.000132 0.000000 -0.000000 0.000000 96.240509
58 0.000081 96.240509 0.000132 0.000000 -0.000000 0.000000 96.240509
59 0.000081 96.240509 0.000132 0.000000 -0.000000 0.000000 96.240509
[barrel2_top_root]
50 -0.000009 124.139923 0.000132 0.001179 -79.011040 0.001179 124.139923
51 -0.000009 124.139923 0.000132 0.001181 -77.531784 0.001181 124.139923
52 -0.000009 124.139923 0.000132 0.001182 -76.143036 0.001182 124.139923
53 -0.000009 124.139923 0.000132 0.001184 -74.867004 0.001184 124.139923
54 -0.000009 124.139923 0.000132 0.001186 -73.706772 0.001186 124.139923
55 -0.000009 124.139923 0.000132 0.001187 -72.671898 0.001187 124.139923
56 -0.000009 124.139923 0.000132 0.001189 -71.771980 0.001189 124.139923
57 -0.000009 124.139923 0.000132 0.001190 -71.016838 0.001190 124.139923
58 -0.000009 124.139923 0.000132 0.001191 -70.410423 0.001191 124.139923
59 -0.000009 124.139923 0.000132 0.001192 -69.969185 0.001192 124.139923
[barrel3_top_root]
50 0.000101 69.591400 0.000123 0.012262 79.015396 0.012262 69.591400
51 0.000101 69.591400 0.000123 0.010806 77.529686 0.010806 69.591400
52 0.000101 69.591400 0.000123 0.009732 76.147293 0.009732 69.591400
53 0.000101 69.591400 0.000123 0.008912 74.864952 0.008912 69.591400
54 0.000101 69.591400 0.000123 0.008281 73.704720 0.008281 69.591400
55 0.000101 69.591400 0.000123 0.007790 72.669884 0.007790 69.591400
56 0.000101 69.591400 0.000123 0.007408 71.769989 0.007408 69.591400
57 0.000101 69.591400 0.000123 0.007116 71.014847 0.007116 69.591400
58 0.000101 69.591400 0.000123 0.006900 70.414520 0.006900 69.591400
59 0.000101 69.591400 0.000123 0.006748 69.967186 0.006748 69.591400
[barrel1_top_back]
50 -3.343935 98.041893 186.671844 -19.599546 0.001918 0.001353 210.878571
51 -3.343935 98.041893 186.671844 -20.568920 0.001929 0.001337 210.878571
52 -3.343935 98.041893 186.671844 -21.544815 0.001941 0.001320 210.878571
53 -3.343935 98.041893 186.671844 -22.512205 0.001952 0.001304 210.878571
54 -3.343935 98.041893 186.671844 -23.481239 0.001963 0.001287 210.878571
55 -3.343935 98.041893 186.671844 -24.442717 0.001974 0.001271 210.878571
56 -3.343935 98.041893 186.671844 -25.404194 0.001984 0.001254 210.878571
57 -3.343935 98.041893 186.671844 -26.353136 0.001994 0.001238 210.878571
58 -3.343935 98.041893 186.671844 -27.288651 0.002004 0.001221 210.878571
59 -3.343935 98.041893 186.671844 -28.215820 0.002014 0.001205 210.878571
[barrel2_top_back]
50 3.886122 70.142326 185.630630 -9.981461 0.001798 0.001509 198.478668
51 3.886122 70.142326 185.630630 -10.478008 0.001804 0.001501 198.478668
52 3.886122 70.142326 185.630630 -10.969779 0.001811 0.001493 198.478668
53 3.886122 70.142326 185.630630 -11.466727 0.001817 0.001486 198.478668
54 3.886122 70.142326 185.630630 -11.958922 0.001824 0.001478 198.478668
55 3.886122 70.142326 185.630630 -12.451341 0.001830 0.001470 198.478668
56 3.886122 70.142326 185.630630 -12.939007 0.001836 0.001462 198.478668
57 3.886122 70.142326 185.630630 -13.421926 0.001842 0.001454 198.478668
58 3.886122 70.142326 185.630630 -13.900105 0.001848 0.001447 198.478668
59 3.886122 70.142326 185.630630 -14.368558 0.001854 0.001439 198.478668
[barrel3_top_back]
50 -0.050068 125.495209 180.152344 -14.807329 0.001860 0.001432 219.553894
51 -0.050068 125.495209 180.152344 -15.550756 0.001869 0.001420 219.553894
52 -0.050068 125.495209 180.152344 -16.299829 0.001878 0.001408 219.553894
53 -0.050068 125.495209 180.152344 -17.044971 0.001887 0.001395 219.553894
54 -0.050068 125.495209 180.152344 -17.790110 0.001896 0.001383 219.553894
55 -0.050068 125.495209 180.152344 -18.536379 0.001905 0.001371 219.553894
56 -0.050068 125.495209 180.152344 -19.273401 0.001914 0.001358 219.553894
57 -0.050068 125.495209 180.152344 -20.011227 0.001923 0.001346 219.553894
58 -0.050068 125.495209 180.152344 -20.737757 0.001931 0.001334 219.553894
59 -0.050068 125.495209 180.152344 -21.464273 0.001940 0.001322 219.553894
